<?xml version="1.0" encoding="utf-8"?>
<!-- Generator: Adobe Illustrator 27.9.0, SVG Export Plug-In . SVG Version: 6.00 Build 0)  -->
<svg version="1.1" id="Capa_1" xmlns="http://www.w3.org/2000/svg" xmlns:xlink="http://www.w3.org/1999/xlink" x="0px" y="0px"
	 viewBox="0 0 16 16" style="enable-background:new 0 0 16 16;" xml:space="preserve">
<style type="text/css">
	.st0{fill:#E74C3C;}
	.st1{fill:#FFFFFF;}
</style>
<g>
	<circle class="st0" cx="8" cy="8" r="8"/>
</g>
<path class="st1" d="M9.41,8l2.12-2.12c0.39-0.39,0.39-1.02,0-1.41c-0.39-0.39-1.02-0.39-1.41,0L8,6.59L5.88,4.46
	c-0.39-0.39-1.02-0.39-1.41,0c-0.39,0.39-0.39,1.02,0,1.41L6.59,8l-2.12,2.12c-0.39,0.39-0.39,1.02,0,1.41
	c0.39,0.39,1.02,0.39,1.41,0L8,9.41l2.12,2.12c0.39,0.39,1.02,0.39,1.41,0c0.39-0.39,0.39-1.02,0-1.41L9.41,8z"/>
</svg>
