<?xml version="1.0" encoding="utf-8"?>
<!-- Generator: Adobe Illustrator 27.8.1, SVG Export Plug-In . SVG Version: 6.00 Build 0)  -->
<svg version="1.1" id="Layer_1" xmlns="http://www.w3.org/2000/svg" xmlns:xlink="http://www.w3.org/1999/xlink" x="0px" y="0px"
	 viewBox="0 0 434.15 434.15" style="enable-background:new 0 0 434.15 434.15;" xml:space="preserve">
<style type="text/css">
	.st0{fill:#FC490B;}
	.st1{fill:#FFFFFF;}
</style>
<path class="st0" d="M27.34,14.37l28.18,360.47c0.42,5.41,4.09,10.03,9.26,11.67l148.27,47.01c2.62,0.83,5.44,0.83,8.06,0
	l148.27-47.01c5.18-1.64,8.84-6.26,9.26-11.67l28.18-360.47C407.42,6.62,401.29,0,393.52,0H40.63C32.86,0,26.73,6.62,27.34,14.37z"
	/>
<polygon class="st1" points="334.55,126.21 150.92,126.21 156.46,177.32 330.56,177.32 319.17,323.01 217.07,355.38 114.98,323.01 
	109.03,246.9 162.62,246.9 162.62,284.23 218.51,299.23 274.06,284.23 278.37,224.73 107.29,224.73 95.94,79.42 338.21,79.42 "/>
</svg>
