<?xml version="1.0" encoding="utf-8"?>
<!-- Generator: Adobe Illustrator 27.8.1, SVG Export Plug-In . SVG Version: 6.00 Build 0)  -->
<svg version="1.1" id="Capa_1" xmlns="http://www.w3.org/2000/svg" xmlns:xlink="http://www.w3.org/1999/xlink" x="0px" y="0px"
	 viewBox="0 0 2418 2500" style="enable-background:new 0 0 2418 2500;" xml:space="preserve">
<style type="text/css">
	.st0{fill:#FFFFFF;}
</style>
<path class="st0" d="M2412.34,570.39c0.89,3.31,1.35,6.73,1.36,10.16v533.35c0,13.93-7.45,26.8-19.54,33.74l-447.65,257.73v510.85
	c0,13.9-7.39,26.74-19.44,33.74l-934.44,537.92c-2.14,1.22-4.47,1.99-6.81,2.82c-0.87,0.29-1.7,0.83-2.62,1.07
	c-6.53,1.72-13.4,1.72-19.93,0c-1.07-0.29-2.04-0.88-3.06-1.26c-2.14-0.78-4.37-1.46-6.42-2.62L19.54,1949.96
	c-12.08-6.94-19.53-19.8-19.54-33.74V316.16c0-3.5,0.49-6.9,1.36-10.21c0.29-1.12,0.97-2.14,1.36-3.26
	c0.73-2.04,1.41-4.13,2.48-6.03c0.73-1.26,1.8-2.28,2.67-3.45c1.12-1.56,2.14-3.16,3.45-4.52c1.12-1.12,2.58-1.94,3.84-2.92
	c1.41-1.17,2.67-2.43,4.28-3.35h0.05L486.64,13.46c12.04-6.93,26.85-6.93,38.89,0l467.15,268.96h0.1c1.56,0.97,2.87,2.19,4.28,3.31
	c1.26,0.97,2.67,1.85,3.79,2.92c1.36,1.41,2.33,3.01,3.5,4.57c0.83,1.17,1.94,2.19,2.62,3.45c1.12,1.94,1.75,3.99,2.53,6.03
	c0.39,1.12,1.07,2.14,1.36,3.31c0.9,3.31,1.35,6.73,1.36,10.16v999.38l389.27-224.14V580.5c0-3.4,0.49-6.85,1.36-10.11
	c0.34-1.17,0.97-2.19,1.36-3.31c0.78-2.04,1.46-4.13,2.53-6.03c0.73-1.26,1.8-2.28,2.62-3.45c1.17-1.56,2.14-3.16,3.5-4.52
	c1.12-1.12,2.53-1.94,3.79-2.92c1.46-1.17,2.72-2.43,4.28-3.35h0.05l467.19-268.96c12.03-6.94,26.85-6.94,38.89,0l467.15,268.96
	c1.65,0.97,2.92,2.19,4.38,3.31c1.22,0.97,2.62,1.85,3.74,2.92c1.36,1.41,2.33,3.01,3.5,4.57c0.88,1.17,1.94,2.19,2.62,3.45
	c1.12,1.9,1.75,3.99,2.53,6.03C2411.41,568.21,2412.05,569.23,2412.34,570.39L2412.34,570.39z M2335.83,1091.4V647.88l-163.48,94.11
	l-225.84,130.03v443.52l389.37-224.14H2335.83z M1868.68,1893.71V1449.9l-222.15,126.87l-634.37,362.05v447.99L1868.68,1893.71z
	 M77.87,383.49v1510.23l856.42,493.05v-447.9l-447.41-253.21l-0.15-0.1l-0.19-0.1c-1.51-0.88-2.77-2.14-4.18-3.21
	c-1.22-0.97-2.62-1.75-3.69-2.82l-0.1-0.15c-1.26-1.22-2.14-2.72-3.21-4.08c-0.97-1.31-2.14-2.43-2.92-3.79l-0.05-0.15
	c-0.87-1.46-1.41-3.21-2.04-4.86c-0.63-1.46-1.46-2.82-1.85-4.37v-0.05c-0.49-1.85-0.58-3.79-0.78-5.69
	c-0.19-1.46-0.58-2.92-0.58-4.38V607.63l-225.8-130.08L77.87,383.54L77.87,383.49z M506.13,92.12L116.91,316.16l389.13,224.05
	l389.17-224.09l-389.17-224L506.13,92.12z M708.54,1490.34l225.8-129.98V383.49L770.86,477.6L545.02,607.63v976.87L708.54,1490.34z
	 M1907.62,356.51l-389.17,224.05l389.17,224.05l389.13-224.09L1907.62,356.51z M1868.68,872.02l-225.84-130.03l-163.48-94.11v443.52
	l225.8,129.98l163.53,94.16V872.02z M973.18,1871.5l570.83-325.88l285.34-162.84l-388.88-223.9l-447.75,257.78l-408.08,234.93
	L973.18,1871.5z"/>
</svg>
