<?xml version="1.0" encoding="utf-8"?>
<!-- Generator: Adobe Illustrator 27.8.1, SVG Export Plug-In . SVG Version: 6.00 Build 0)  -->
<svg version="1.1" id="Layer_1" xmlns="http://www.w3.org/2000/svg" xmlns:xlink="http://www.w3.org/1999/xlink" x="0px" y="0px"
	 viewBox="0 0 447.67 447.67" style="enable-background:new 0 0 447.67 447.67;" xml:space="preserve">
<style type="text/css">
	.st0{fill:#FFFFFF;}
	.st1{fill:#00769D;}
</style>
<circle class="st0" cx="223.84" cy="223.84" r="223.84"/>
<path class="st1" d="M127.49,131.66h-26.6l72.51,204.98L214,220.63l-31.47-88.97h-28.06v-19.53h124.27v19.53h-29.1l72.51,204.98
	l26.07-74.49c34.19-95.43-28.02-125.16-28.02-146.46s17.27-38.56,38.56-38.56c1.15,0,2.27,0.06,3.37,0.16
	c-36.09-34.07-84.75-54.96-138.29-54.96c-69.96,0-131.59,35.66-167.72,89.79h71.37L127.49,131.66L127.49,131.66L127.49,131.66z"/>
<path class="st1" d="M22.33,223.84c0,77.15,43.36,144.16,107.03,178.02L38.43,144.8C28.07,169.07,22.33,195.78,22.33,223.84z"/>
<path class="st1" d="M399.2,124.54c2.88,16.97,2.01,36.05-2.41,55.19h0.8l-3.05,8.71l0,0c-1.81,6.29-4.08,12.72-6.66,19.04
	l-69.34,194.24c63.54-33.9,106.79-100.84,106.79-177.89C425.34,187.73,415.83,153.85,399.2,124.54z"/>
<path class="st1" d="M161.69,415.56c19.58,6.34,40.46,9.78,62.15,9.78c20.69,0,40.64-3.12,59.43-8.91l-58.94-166.62L161.69,415.56z"
	/>
</svg>
